<svg width="60" height="61" viewBox="0 0 60 61" fill="none" xmlns="http://www.w3.org/2000/svg">
<path fill-rule="evenodd" clip-rule="evenodd" d="M35 52.5015L37.7864 50.0015H60V51.2515C54.9077 52.0897 49.755 52.5077 44.5942 52.5015H35ZM10.0135 7.50146L12.4404 30.0015L14.9066 29.5564L12.7978 10.0015H47.2025L44.5395 34.69C44.4828 35.2223 44.3778 35.7447 44.2274 36.2515L46.3934 37.6478C46.7112 36.7869 46.9249 35.8841 47.0248 34.958L47.29 32.5015H48.292C50.7592 32.5015 53.1393 31.5895 54.9748 29.9407C56.81 28.292 57.9712 26.023 58.2347 23.57L58.681 19.42C58.7748 18.5478 58.684 17.6657 58.4145 16.831C58.145 15.9963 57.7027 15.2276 57.1165 14.575C56.5305 13.9225 55.8135 13.4006 55.0125 13.0433C54.2112 12.6861 53.344 12.5014 52.4668 12.5015H49.4473L49.9865 7.50146H10.0135ZM49.1775 15.0015H52.4668C52.993 15.0015 53.5132 15.1122 53.9937 15.3265C54.4745 15.5408 54.9045 15.8538 55.2563 16.2453C55.6078 16.6367 55.8732 17.0977 56.035 17.5984C56.1967 18.0991 56.2515 18.6283 56.1952 19.1515L55.75 23.303C55.555 25.144 54.6847 26.8475 53.3075 28.0845C51.9302 29.3217 50.1432 30.0045 48.292 30.0015H47.5595L49.1775 15.0015Z" fill="#FEC110"/>
<path d="M34.1552 48.4664L33.0706 49.5511C31.5299 48.0716 29.7284 46.8879 27.7558 46.0608C25.6281 45.1686 23.3439 44.7091 21.0367 44.7091C18.7296 44.7091 16.4454 45.1686 14.3177 46.0608C12.3451 46.8879 10.5436 48.0716 9.00281 49.5511L7.91822 48.4665C9.60732 46.8534 11.5806 45.5646 13.7396 44.6662C16.0521 43.7041 18.5322 43.2086 21.0367 43.2086C23.5415 43.2086 26.0213 43.7041 28.3339 44.6663C30.4928 45.5646 32.4661 46.8533 34.1552 48.4664ZM24.4216 54.1002C25.3412 54.4871 26.1866 55.0284 26.9216 55.6994L25.8761 56.7451C25.2773 56.2176 24.5954 55.7907 23.8568 55.4824C22.9633 55.1095 22.0048 54.9176 21.0365 54.9176C20.0684 54.9176 19.1097 55.1094 18.2161 55.4824C17.4775 55.7907 16.7957 56.2176 16.1968 56.7451L15.1508 55.699C15.8858 55.0282 16.7309 54.4871 17.6504 54.1002C18.7222 53.6493 19.8733 53.4171 21.036 53.4171C22.1989 53.4171 23.3497 53.6493 24.4216 54.1002ZM40.2881 42.3362C37.7996 39.9083 34.8729 37.9721 31.6622 36.631L31.6622 36.631C28.2966 35.2255 24.6854 34.5016 21.038 34.5016C17.3906 34.5016 13.7795 35.2255 10.4139 36.631L10.4138 36.631C7.20295 37.9721 4.27644 39.9083 1.7879 42.3362L0.710058 41.2583C3.34452 38.6952 6.44108 36.6526 9.83726 35.2392C13.3868 33.762 17.1934 33.0015 21.0382 33.0015C24.8828 33.0015 28.6895 33.762 32.2389 35.2392L32.431 34.7776L32.2389 35.2392C35.6351 36.6525 38.7316 38.6952 41.366 41.2582L40.2881 42.3362Z" fill="#FEC110" stroke="#FEC110"/>
</svg>
