<svg width="60" height="61" viewBox="0 0 60 61" fill="none" xmlns="http://www.w3.org/2000/svg">
<circle cx="30" cy="30.0029" r="30" fill="white"/>
<g clip-path="url(#clip0_11_446)">
<path d="M24.168 36.8519C24.4155 36.0282 24.9219 35.3061 25.6122 34.7929C26.3025 34.2797 27.1398 34.0027 28 34.0029H32C32.8612 34.0026 33.6996 34.2803 34.3904 34.7947C35.0811 35.3091 35.5874 36.0327 35.834 36.8579M39 30.0029C39 34.9735 34.9706 39.0029 30 39.0029C25.0294 39.0029 21 34.9735 21 30.0029C21 25.0324 25.0294 21.0029 30 21.0029C34.9706 21.0029 39 25.0324 39 30.0029ZM33 28.0029C33 29.6598 31.6569 31.0029 30 31.0029C28.3431 31.0029 27 29.6598 27 28.0029C27 26.3461 28.3431 25.0029 30 25.0029C31.6569 25.0029 33 26.3461 33 28.0029Z" stroke="#2C2C2C" stroke-width="1.5" stroke-linecap="round" stroke-linejoin="round"/>
</g>
<defs>
<clipPath id="clip0_11_446">
<rect width="24" height="24" fill="white" transform="translate(18 18.0029)"/>
</clipPath>
</defs>
</svg>
