<svg width="100" height="17" viewBox="0 0 100 17" fill="none" xmlns="http://www.w3.org/2000/svg">
<g clip-path="url(#clip0_11_453)">
<path fill-rule="evenodd" clip-rule="evenodd" d="M7.99544 1.00427C8.12232 1.00427 8.2382 1.07631 8.29435 1.19009L10.2741 5.20153L14.7006 5.84305C14.8262 5.86126 14.9306 5.94925 14.9698 6.06999C15.009 6.19072 14.9762 6.32325 14.8853 6.4118L11.6776 9.53412L12.434 13.9432C12.4554 14.0684 12.404 14.1948 12.3012 14.2694C12.1985 14.3439 12.0623 14.3537 11.95 14.2945L7.99993 12.213L4.04056 14.2946C3.92825 14.3537 3.79216 14.3439 3.68951 14.2693C3.58686 14.1947 3.53545 14.0683 3.5569 13.9432L4.31325 9.53412L1.1056 6.4118C1.01463 6.32325 0.98186 6.19072 1.02107 6.06999C1.06028 5.94925 1.16466 5.86126 1.29029 5.84305L5.71678 5.20153L7.69652 1.19009C7.75268 1.07631 7.86856 1.00427 7.99544 1.00427Z" fill="#FEC110" stroke="#FEC110" stroke-linecap="round" stroke-linejoin="round"/>
</g>
<g clip-path="url(#clip1_11_453)">
<path fill-rule="evenodd" clip-rule="evenodd" d="M28.9954 1.00427C29.1223 1.00427 29.2382 1.07631 29.2943 1.19009L31.2741 5.20153L35.7006 5.84305C35.8262 5.86126 35.9306 5.94925 35.9698 6.06999C36.009 6.19072 35.9762 6.32325 35.8853 6.4118L32.6776 9.53412L33.434 13.9432C33.4554 14.0684 33.404 14.1948 33.3012 14.2694C33.1985 14.3439 33.0623 14.3537 32.95 14.2945L28.9999 12.213L25.0406 14.2946C24.9283 14.3537 24.7922 14.3439 24.6895 14.2693C24.5869 14.1947 24.5355 14.0683 24.5569 13.9432L25.3132 9.53412L22.1056 6.4118C22.0146 6.32325 21.9819 6.19072 22.0211 6.06999C22.0603 5.94925 22.1647 5.86126 22.2903 5.84305L26.7168 5.20153L28.6965 1.19009C28.7527 1.07631 28.8686 1.00427 28.9954 1.00427Z" fill="#FEC110" stroke="#FEC110" stroke-linecap="round" stroke-linejoin="round"/>
</g>
<g clip-path="url(#clip2_11_453)">
<path fill-rule="evenodd" clip-rule="evenodd" d="M49.9954 1.00427C50.1223 1.00427 50.2382 1.07631 50.2943 1.19009L52.2741 5.20153L56.7006 5.84305C56.8262 5.86126 56.9306 5.94925 56.9698 6.06999C57.009 6.19072 56.9762 6.32325 56.8853 6.4118L53.6776 9.53412L54.434 13.9432C54.4554 14.0684 54.404 14.1948 54.3012 14.2694C54.1985 14.3439 54.0623 14.3537 53.95 14.2945L49.9999 12.213L46.0406 14.2946C45.9283 14.3537 45.7922 14.3439 45.6895 14.2693C45.5869 14.1947 45.5355 14.0683 45.5569 13.9432L46.3132 9.53412L43.1056 6.4118C43.0146 6.32325 42.9819 6.19072 43.0211 6.06999C43.0603 5.94925 43.1647 5.86126 43.2903 5.84305L47.7168 5.20153L49.6965 1.19009C49.7527 1.07631 49.8686 1.00427 49.9954 1.00427Z" fill="#FEC110" stroke="#FEC110" stroke-linecap="round" stroke-linejoin="round"/>
</g>
<g clip-path="url(#clip3_11_453)">
<path fill-rule="evenodd" clip-rule="evenodd" d="M70.9954 1.00427C71.1223 1.00427 71.2382 1.07631 71.2943 1.19009L73.2741 5.20153L77.7006 5.84305C77.8262 5.86126 77.9306 5.94925 77.9698 6.06999C78.009 6.19072 77.9762 6.32325 77.8853 6.4118L74.6776 9.53412L75.434 13.9432C75.4554 14.0684 75.404 14.1948 75.3012 14.2694C75.1985 14.3439 75.0623 14.3537 74.95 14.2945L70.9999 12.213L67.0406 14.2946C66.9283 14.3537 66.7922 14.3439 66.6895 14.2693C66.5869 14.1947 66.5355 14.0683 66.5569 13.9432L67.3132 9.53412L64.1056 6.4118C64.0146 6.32325 63.9819 6.19072 64.0211 6.06999C64.0603 5.94925 64.1647 5.86126 64.2903 5.84305L68.7168 5.20153L70.6965 1.19009C70.7527 1.07631 70.8686 1.00427 70.9954 1.00427Z" fill="#FEC110" stroke="#FEC110" stroke-linecap="round" stroke-linejoin="round"/>
</g>
<g clip-path="url(#clip4_11_453)">
<path d="M92 11.8363L87.8853 13.9996L88.6713 9.41765L85.338 6.17298L89.938 5.50631L91.9953 1.33765L94.0527 5.50631L98.6527 6.17298L95.3193 9.41765L96.1053 13.9996L92 11.8363Z" stroke="#989898" stroke-width="1.5" stroke-linecap="round" stroke-linejoin="round"/>
</g>
<defs>
<clipPath id="clip0_11_453">
<rect width="16" height="16" fill="white" transform="translate(0 0.00292969)"/>
</clipPath>
<clipPath id="clip1_11_453">
<rect width="16" height="16" fill="white" transform="translate(21 0.00292969)"/>
</clipPath>
<clipPath id="clip2_11_453">
<rect width="16" height="16" fill="white" transform="translate(42 0.00292969)"/>
</clipPath>
<clipPath id="clip3_11_453">
<rect width="16" height="16" fill="white" transform="translate(63 0.00292969)"/>
</clipPath>
<clipPath id="clip4_11_453">
<rect width="16" height="16" fill="white" transform="translate(84 0.00292969)"/>
</clipPath>
</defs>
</svg>
